<svg width="36" height="26" viewBox="0 0 36 26" fill="none" xmlns="http://www.w3.org/2000/svg">
<path d="M10.0452 12.9999C12.9824 12.9999 15.3634 10.6189 15.3634 7.68171C15.3634 4.74456 12.9824 2.36353 10.0452 2.36353C7.10808 2.36353 4.72705 4.74456 4.72705 7.68171C4.72705 10.6189 7.10808 12.9999 10.0452 12.9999Z" fill="#3AB251"/>
<path d="M16.1023 15.9546C14.0223 14.8983 11.7266 14.4773 10.0455 14.4773C6.75261 14.4773 0 16.4967 0 20.5341V23.6364H11.0795V22.4494C11.0795 21.046 11.6705 19.6389 12.7045 18.4659C13.5296 17.5293 14.6848 16.66 16.1023 15.9546Z" fill="#3AB251"/>
<path d="M23.9319 15.3635C20.0858 15.3635 12.4092 17.739 12.4092 22.4544V25.9999H35.4546V22.4544C35.4546 17.739 27.778 15.3635 23.9319 15.3635Z" fill="#3AB251"/>
<path d="M23.9316 13C27.5215 13 30.4316 10.0899 30.4316 6.5C30.4316 2.91015 27.5215 0 23.9316 0C20.3418 0 17.4316 2.91015 17.4316 6.5C17.4316 10.0899 20.3418 13 23.9316 13Z" fill="#3AB251"/>
</svg>
