<svg width="22" height="22" viewBox="0 0 22 22" fill="none" xmlns="http://www.w3.org/2000/svg">
<path d="M5.24089 11.352C5.00622 11.5859 4.88889 11.8759 4.88889 12.2222V15.8889C4.88889 16.2352 5.00622 16.5257 5.24089 16.7603C5.47556 16.995 5.76563 17.1119 6.11111 17.1111C6.45659 17.1103 6.74707 16.993 6.98256 16.7591C7.21804 16.5253 7.33496 16.2352 7.33333 15.8889V12.2222C7.33333 11.8759 7.216 11.5859 6.98133 11.352C6.74667 11.1181 6.45659 11.0008 6.11111 11C5.76563 10.9992 5.47556 11.1165 5.24089 11.352ZM15.0187 5.24089C14.784 5.47474 14.6667 5.76481 14.6667 6.11111V15.8889C14.6667 16.2352 14.784 16.5257 15.0187 16.7603C15.2533 16.995 15.5434 17.1119 15.8889 17.1111C16.2344 17.1103 16.5248 16.993 16.7603 16.7591C16.9958 16.5253 17.1127 16.2352 17.1111 15.8889V6.11111C17.1111 5.76481 16.9938 5.47474 16.7591 5.24089C16.5244 5.00704 16.2344 4.8897 15.8889 4.88889C15.5434 4.88807 15.2533 5.00541 15.0187 5.24089ZM10.1298 13.7964C9.89511 14.0303 9.77778 14.3204 9.77778 14.6667V15.8889C9.77778 16.2352 9.89511 16.5257 10.1298 16.7603C10.3644 16.995 10.6545 17.1119 11 17.1111C11.3455 17.1103 11.636 16.993 11.8714 16.7591C12.1069 16.5253 12.2239 16.2352 12.2222 15.8889V14.6667C12.2222 14.3204 12.1049 14.0303 11.8702 13.7964C11.6356 13.5626 11.3455 13.4453 11 13.4444C10.6545 13.4436 10.3644 13.561 10.1298 13.7964ZM2.44444 22C1.77222 22 1.19696 21.7608 0.718667 21.2826C0.24037 20.8043 0.000814815 20.2286 0 19.5556V2.44444C0 1.77222 0.239556 1.19696 0.718667 0.718667C1.19778 0.24037 1.77304 0.000814815 2.44444 0H19.5556C20.2278 0 20.8034 0.239556 21.2826 0.718667C21.7617 1.19778 22.0008 1.77304 22 2.44444V19.5556C22 20.2278 21.7608 20.8034 21.2826 21.2826C20.8043 21.7617 20.2286 22.0008 19.5556 22H2.44444ZM2.44444 19.5556H19.5556V2.44444H2.44444V19.5556ZM11.8714 10.6492C12.1053 10.4146 12.2222 10.1241 12.2222 9.77778C12.2222 9.43148 12.1049 9.14141 11.8702 8.90755C11.6356 8.6737 11.3455 8.55637 11 8.55555C10.6545 8.55474 10.3644 8.67207 10.1298 8.90755C9.89511 9.14304 9.77778 9.43311 9.77778 9.77778C9.77778 10.1224 9.89511 10.4129 10.1298 10.6492C10.3644 10.8855 10.6545 11.0024 11 11C11.3455 10.9976 11.636 10.8802 11.8714 10.648" fill="black"/>
</svg>
