<svg width="22" height="24" viewBox="0 0 22 24" fill="none" xmlns="http://www.w3.org/2000/svg">
<path d="M0 24V2.66667H8.6845C8.55892 1.98578 8.72667 1.37111 9.18775 0.822667C9.64792 0.274222 10.2566 0 11.0138 0C11.7709 0 12.3796 0.274222 12.8398 0.822667C13.2999 1.37111 13.459 1.98578 13.3169 2.66667H22V24H0ZM1.375 22.6667H20.625V4H1.375V22.6667ZM4.8125 19.0267H13.0625V17.6933H4.8125V19.0267ZM4.8125 14H17.1875V12.6667H4.8125V14ZM4.8125 8.97333H17.1875V7.64H4.8125V8.97333ZM11.7397 2.97333C11.9341 2.784 12.0312 2.54489 12.0312 2.256C12.0312 1.96711 11.9341 1.72844 11.7397 1.54C11.5454 1.35156 11.2988 1.25689 11 1.256C10.7012 1.25511 10.455 1.34978 10.2616 1.54C10.0682 1.73022 9.97058 1.96889 9.96875 2.256C9.96692 2.54311 10.0645 2.78222 10.2616 2.97333C10.4587 3.16444 10.7048 3.25867 11 3.256C11.2952 3.25333 11.5417 3.15911 11.7397 2.97333Z" fill="black"/>
</svg>
