<svg width="15" height="14" viewBox="0 0 15 14" fill="none" xmlns="http://www.w3.org/2000/svg">
<path d="M9.17521 0.0228791C9.32285 0.0668951 9.44878 0.174529 9.5253 0.322109C9.60182 0.46969 9.62266 0.645133 9.58325 0.809857L6.53023 13.5232C6.49059 13.6881 6.39387 13.8286 6.26136 13.9139C6.12885 13.9992 5.9714 14.0222 5.82364 13.978C5.67588 13.9338 5.54993 13.8259 5.47347 13.6781C5.39702 13.5302 5.37634 13.3546 5.41598 13.1898L8.46978 0.476377C8.48939 0.394805 8.52322 0.318342 8.56933 0.251358C8.61543 0.184373 8.67292 0.128179 8.7385 0.0859862C8.80408 0.043793 8.87647 0.0164272 8.95153 0.00545203C9.0266 -0.00552317 9.10286 0.000107373 9.17597 0.0220219M10.9142 2.63928C11.0164 2.51255 11.1596 2.4363 11.3122 2.4273C11.4648 2.4183 11.6143 2.47728 11.728 2.59127L13.0628 3.93205C13.6291 4.49957 14.0978 4.97107 14.4206 5.39799C14.7587 5.84806 15 6.3307 15 6.92737C15 7.52317 14.7595 8.00582 14.4206 8.45503C14.0978 8.88281 13.6291 9.35431 13.0628 9.92183L11.728 11.2626C11.6144 11.3767 11.4647 11.4358 11.3121 11.4269C11.1594 11.418 11.0161 11.3418 10.9138 11.215C10.8115 11.0883 10.7585 10.9214 10.7665 10.751C10.7745 10.5807 10.8428 10.4209 10.9565 10.3067L12.2605 8.99768C12.866 8.38988 13.2741 7.97753 13.5384 7.62776C13.792 7.29085 13.8473 7.09454 13.8473 6.92651C13.8473 6.75848 13.792 6.56302 13.5384 6.22612C13.2741 5.87549 12.866 5.46314 12.2605 4.85619L10.9565 3.54713C10.9001 3.49066 10.8543 3.42233 10.8216 3.34608C10.7889 3.26982 10.7701 3.18713 10.7661 3.10273C10.7621 3.01833 10.773 2.93388 10.7983 2.85421C10.8236 2.77454 10.8627 2.70121 10.9134 2.63842M4.04355 3.54713C4.15717 3.433 4.22549 3.27318 4.23349 3.10285C4.24149 2.93251 4.1885 2.76561 4.08619 2.63885C3.98388 2.5121 3.84063 2.43587 3.68794 2.42695C3.53526 2.41803 3.38565 2.47714 3.27203 2.59127L1.93724 3.93205C1.3709 4.49957 0.902152 4.97107 0.579406 5.39799C0.241291 5.84806 0 6.3307 0 6.92737C0 7.52317 0.240522 8.00582 0.579406 8.45503C0.902152 8.88281 1.3709 9.35431 1.93724 9.92183L3.27203 11.2626C3.38565 11.3767 3.53526 11.4358 3.68794 11.4269C3.84063 11.418 3.98388 11.3418 4.08619 11.215C4.1885 11.0883 4.24149 10.9214 4.23349 10.751C4.22549 10.5807 4.15717 10.4209 4.04355 10.3067L2.7395 8.99768C2.13397 8.38988 1.72592 7.97753 1.46158 7.62776C1.20799 7.29085 1.15266 7.09454 1.15266 6.92651C1.15266 6.75848 1.20799 6.56302 1.46158 6.22612C1.72592 5.87549 2.13397 5.46314 2.7395 4.85619L4.04355 3.54713Z" fill="black"/>
</svg>
