<svg width="24" height="21" viewBox="0 0 24 21" fill="none" xmlns="http://www.w3.org/2000/svg">
<path d="M2.25006 7.11414V16.6141M1.27606 6.39164C0.585063 6.06064 0.585063 5.16764 1.27606 4.83664C2.18206 4.40264 3.53556 3.78664 5.45006 2.98914C8.11006 1.88114 9.92706 1.22414 10.9026 0.891143C11.4519 0.702952 12.0482 0.702952 12.5976 0.891143C13.5726 1.22414 15.3906 1.88114 18.0501 2.98914C19.9651 3.78664 21.3181 4.40264 22.2246 4.83664C22.9146 5.16764 22.9146 6.06064 22.2246 6.39164C21.3181 6.82564 19.9646 7.44164 18.0501 8.23914C15.3901 9.34714 13.5731 10.0041 12.5976 10.3371C12.0482 10.5253 11.4519 10.5253 10.9026 10.3371C9.92756 10.0041 8.10956 9.34714 5.45006 8.23914C3.53506 7.44114 2.18206 6.82564 1.27606 6.39164Z" stroke="#9747FF" stroke-width="1.5" stroke-linecap="round" stroke-linejoin="round"/>
<path d="M5.301 8.17676C5.26585 8.84968 5.24884 9.52342 5.25 10.1973C5.25 11.7443 5.3295 12.7158 5.4075 13.2973C5.476 13.8053 5.767 14.2373 6.221 14.4748C7.099 14.9348 8.8825 15.6143 11.75 15.6143C14.6175 15.6143 16.401 14.9353 17.279 14.4753C17.733 14.2378 18.024 13.8058 18.0925 13.2983C18.1705 12.7163 18.25 11.7448 18.25 10.1983C18.2512 9.52425 18.2342 8.85034 18.199 8.17726M3.75 18.1143C3.75 18.5121 3.59196 18.8936 3.31066 19.1749C3.02936 19.4562 2.64782 19.6143 2.25 19.6143C1.85218 19.6143 1.47064 19.4562 1.18934 19.1749C0.908035 18.8936 0.75 18.5121 0.75 18.1143C0.75 17.7164 0.908035 17.3349 1.18934 17.0536C1.47064 16.7723 1.85218 16.6143 2.25 16.6143C2.64782 16.6143 3.02936 16.7723 3.31066 17.0536C3.59196 17.3349 3.75 17.7164 3.75 18.1143Z" stroke="#9747FF" stroke-width="1.5" stroke-linecap="round" stroke-linejoin="round"/>
</svg>
