<svg width="12" height="13" viewBox="0 0 12 13" fill="none" xmlns="http://www.w3.org/2000/svg">
<path fill-rule="evenodd" clip-rule="evenodd" d="M4.42105 0C5.64191 0 6.63158 1.01854 6.63158 2.27498C6.63158 3.48956 5.70677 4.48184 4.54234 4.54662L4.42105 4.55C3.20021 4.55 2.21054 3.53146 2.21054 2.27498C2.21054 1.06044 3.13535 0.0681283 4.29978 0.00335159L4.42105 0ZM0 11.7H6.06298C5.86164 11.2947 5.73786 10.8534 5.69837 10.4H1.26317V9.36001L1.26643 9.23381C1.32732 8.06488 2.22904 7.14999 3.31579 7.14999H5.52633L5.64203 7.15346C6.03335 7.17702 6.39693 7.31915 6.70092 7.54782C7.01233 7.22687 7.38017 6.96974 7.78486 6.79012C7.19281 6.20683 6.39892 5.85001 5.52633 5.85001H3.31579L3.1791 5.85293C1.41122 5.9288 0 7.46994 0 9.36001V11.7ZM3.47368 2.27498C3.47368 1.73651 3.89783 1.29998 4.42105 1.29998C4.94426 1.29998 5.36842 1.73651 5.36842 2.27498C5.36842 2.81346 4.94426 3.24998 4.42105 3.24998C3.89783 3.24998 3.47368 2.81346 3.47368 2.27498ZM9.15789 7.14999C7.58825 7.14999 6.31578 8.45957 6.31578 10.075C6.31578 11.6904 7.58825 13 9.15789 13C10.7276 13 12 11.6904 12 10.075C12 8.45957 10.7276 7.14999 9.15789 7.14999ZM11.016 9.0623L8.52635 11.6245L7.29986 10.3623L7.8581 9.78777L8.52635 10.4755L10.4578 8.48778L11.016 9.0623Z" fill="#008000"/>
</svg>
