<svg width="14" height="14" viewBox="0 0 14 14" fill="none" xmlns="http://www.w3.org/2000/svg">
<path d="M7.00022 0.5C7.00022 0.367392 7.0529 0.240215 7.14666 0.146447C7.24043 0.0526784 7.36761 0 7.50022 0C8.35381 0 9.19904 0.168127 9.98766 0.494783C10.7763 0.821439 11.4928 1.30023 12.0964 1.90381C12.7 2.50739 13.1788 3.22394 13.5054 4.01256C13.8321 4.80117 14.0002 5.64641 14.0002 6.5C14.0002 6.63261 13.9475 6.75979 13.8538 6.85355C13.76 6.94732 13.6328 7 13.5002 7H7.50022C7.36761 7 7.24043 6.94732 7.14666 6.85355C7.0529 6.75979 7.00022 6.63261 7.00022 6.5V0.5ZM6.00022 2.522C6.00022 2.45254 5.98575 2.38385 5.95774 2.32029C5.92972 2.25673 5.88877 2.19971 5.8375 2.15286C5.78622 2.10601 5.72575 2.07035 5.65993 2.04817C5.59411 2.02598 5.52439 2.01775 5.45522 2.024C4.31966 2.12753 3.23712 2.5525 2.33439 3.24913C1.43167 3.94576 0.746138 4.8852 0.358104 5.95741C-0.0299307 7.02962 -0.104401 8.1902 0.143414 9.30321C0.39123 10.4162 0.951072 11.4356 1.75736 12.2419C2.56365 13.0481 3.583 13.608 4.69601 13.8558C5.80902 14.1036 6.9696 14.0291 8.04181 13.6411C9.11402 13.2531 10.0535 12.5675 10.7501 11.6648C11.4467 10.7621 11.8717 9.67955 11.9752 8.544C11.9813 8.47499 11.973 8.40546 11.9508 8.33983C11.9286 8.2742 11.893 8.2139 11.8463 8.16275C11.7996 8.1116 11.7427 8.07072 11.6794 8.04271C11.616 8.01469 11.5475 8.00015 11.4782 8H6.00022V2.522Z" fill="black"/>
</svg>
