<svg width="22" height="22" viewBox="0 0 22 22" fill="none" xmlns="http://www.w3.org/2000/svg">
<path d="M9.43911 9.24953C12.0537 9.24953 14.1733 7.17895 14.1733 4.62476C14.1733 2.07058 12.0537 0 9.43911 0C6.82451 0 4.70496 2.07058 4.70496 4.62476C4.70496 7.17895 6.82451 9.24953 9.43911 9.24953Z" fill="black"/>
<path d="M12.473 17.7045H17.6029V18.7067H12.473V17.7045Z" fill="black"/>
<path d="M8.07603 19.1363V21.2841C8.07603 21.4739 8.15324 21.656 8.29067 21.7903C8.42811 21.9246 8.61451 22 8.80887 22H21.2672C21.4615 22 21.6479 21.9246 21.7854 21.7903C21.9228 21.656 22 21.4739 22 21.2841V14.125C22 13.9351 21.9228 13.753 21.7854 13.6188C21.6479 13.4845 21.4615 13.4091 21.2672 13.4091H16.1373V12.3567C16.1373 12.1668 16.0601 11.9847 15.9226 11.8505C15.7852 11.7162 15.5988 11.6408 15.4044 11.6408C15.2101 11.6408 15.0237 11.7162 14.8862 11.8505C14.7488 11.9847 14.6716 12.1668 14.6716 12.3567V13.4091H13.2059V10.8461C11.9606 10.6471 10.7009 10.5465 9.43911 10.5455C6.65637 10.5339 3.90481 11.1179 1.37787 12.2565C0.961968 12.4482 0.611101 12.7525 0.366896 13.1332C0.122692 13.5138 -0.00459923 13.955 0.000126986 14.4042V19.1363H8.07603ZM20.5343 20.5682H9.54171V14.8409H14.6716V15.1416C14.6716 15.3315 14.7488 15.5135 14.8862 15.6478C15.0237 15.7821 15.2101 15.8575 15.4044 15.8575C15.5988 15.8575 15.7852 15.7821 15.9226 15.6478C16.0601 15.5135 16.1373 15.3315 16.1373 15.1416V14.8409H20.5343V20.5682Z" fill="black"/>
</svg>
