<svg width="12" height="13" viewBox="0 0 12 13" fill="none" xmlns="http://www.w3.org/2000/svg">
<path d="M0 13V10.9778C0 10.5806 0.0776256 10.2074 0.232877 9.85833C0.388128 9.50926 0.60274 9.24444 0.876712 9.06389C1.34247 8.75093 1.86758 8.48611 2.45205 8.26944C3.03653 8.05278 3.68036 7.94444 4.38356 7.94444C5.08676 7.94444 5.73059 8.05278 6.31507 8.26944C6.89954 8.48611 7.42466 8.75093 7.89041 9.06389C8.16438 9.24444 8.37899 9.50926 8.53425 9.85833C8.6895 10.2074 8.76712 10.5806 8.76712 10.9778V13H0ZM1.09589 11.5556H7.67123V10.9778C7.67123 10.8454 7.64621 10.725 7.59616 10.6167C7.54612 10.5083 7.47982 10.4241 7.39726 10.3639C7.06849 10.1472 6.64621 9.93056 6.13041 9.71389C5.61461 9.49722 5.03233 9.38889 4.38356 9.38889C3.73479 9.38889 3.15269 9.49722 2.63726 9.71389C2.12183 9.93056 1.69936 10.1472 1.36986 10.3639C1.28767 10.4241 1.22155 10.5083 1.17151 10.6167C1.12146 10.725 1.09626 10.8454 1.09589 10.9778V11.5556ZM2.83562 6.37361C2.40639 5.80787 2.19178 5.12778 2.19178 4.33333H2.05479C1.9726 4.33333 1.9063 4.30035 1.85589 4.23439C1.80548 4.16843 1.78046 4.08104 1.78082 3.97222C1.78119 3.86341 1.80639 3.77602 1.85644 3.71006C1.90648 3.64409 1.9726 3.61111 2.05479 3.61111H2.19178C2.19178 3.06944 2.29224 2.58194 2.49315 2.14861C2.69406 1.71528 2.9589 1.37222 3.28767 1.11944V1.80556C3.28767 1.91389 3.31288 2.00128 3.36329 2.06772C3.4137 2.13417 3.47982 2.16715 3.56164 2.16667C3.64347 2.16619 3.70977 2.1332 3.76055 2.06772C3.81132 2.00224 3.83635 1.91485 3.83562 1.80556V0.830556C3.91781 0.794445 4.00457 0.767482 4.09589 0.749667C4.18721 0.731852 4.2831 0.722704 4.38356 0.722222C4.48402 0.721741 4.57991 0.730889 4.67123 0.749667C4.76256 0.768444 4.84931 0.795407 4.93151 0.830556V1.80556C4.93151 1.91389 4.95671 2.00128 5.00712 2.06772C5.05753 2.13417 5.12365 2.16715 5.20548 2.16667C5.28731 2.16619 5.35361 2.1332 5.40438 2.06772C5.45516 2.00224 5.48018 1.91485 5.47945 1.80556V1.11944C5.80822 1.37222 6.07306 1.71528 6.27397 2.14861C6.47488 2.58194 6.57534 3.06944 6.57534 3.61111H6.71233C6.79452 3.61111 6.86082 3.64433 6.91123 3.71078C6.96164 3.77722 6.98667 3.86437 6.9863 3.97222C6.98594 4.08007 6.96091 4.16746 6.91123 4.23439C6.86155 4.30131 6.79525 4.3343 6.71233 4.33333H6.57534C6.57534 5.12778 6.36073 5.80787 5.93151 6.37361C5.50228 6.93935 4.9863 7.22222 4.38356 7.22222C3.78082 7.22222 3.26484 6.93935 2.83562 6.37361ZM5.15781 5.35383C5.37224 5.07072 5.47945 4.73056 5.47945 4.33333H3.28767C3.28767 4.73056 3.39507 5.07072 3.60986 5.35383C3.82466 5.63694 4.08256 5.77826 4.38356 5.77778C4.68457 5.7773 4.94265 5.63598 5.15781 5.35383ZM8.49315 8.66667L8.41096 8.125C8.35616 8.10093 8.30374 8.07396 8.2537 8.04411C8.20365 8.01426 8.15562 7.969 8.10959 7.90833L7.72603 8.08889L7.45205 7.43889L7.75342 7.07778V6.64444L7.45205 6.28333L7.72603 5.63333L8.10959 5.81389C8.14612 5.76574 8.19178 5.72361 8.24657 5.6875C8.30137 5.65139 8.35616 5.6213 8.41096 5.59722L8.49315 5.05556H9.04109L9.12329 5.59722C9.17808 5.6213 9.23288 5.65139 9.28767 5.6875C9.34247 5.72361 9.38813 5.76574 9.42466 5.81389L9.80822 5.63333L10.0822 6.28333L9.78082 6.64444V7.07778L10.0822 7.43889L9.80822 8.08889L9.42466 7.90833C9.37899 7.96852 9.33114 8.01378 9.2811 8.04411C9.23105 8.07444 9.17845 8.10141 9.12329 8.125L9.04109 8.66667H8.49315ZM9.05479 7.24028C9.13699 7.13194 9.17808 7.00556 9.17808 6.86111C9.17808 6.71667 9.13699 6.59028 9.05479 6.48194C8.9726 6.37361 8.87671 6.31944 8.76712 6.31944C8.65753 6.31944 8.56164 6.37361 8.47945 6.48194C8.39726 6.59028 8.35616 6.71667 8.35616 6.86111C8.35616 7.00556 8.39726 7.13194 8.47945 7.24028C8.56164 7.34861 8.65753 7.40278 8.76712 7.40278C8.87671 7.40278 8.9726 7.34861 9.05479 7.24028ZM9.75342 5.05556L9.64384 4.29722C9.56164 4.26111 9.48621 4.21609 9.41753 4.16217C9.34886 4.10824 9.2873 4.04493 9.23288 3.97222L8.65753 4.225L8.27397 3.35833L8.73973 2.81667C8.72146 2.75648 8.71233 2.70833 8.71233 2.67222V2.38333C8.71233 2.34722 8.72146 2.29907 8.73973 2.23889L8.27397 1.69722L8.65753 0.830556L9.23288 1.08333C9.28767 1.01111 9.34941 0.947796 9.41808 0.893389C9.48676 0.838981 9.56201 0.793963 9.64384 0.758333L9.75342 0H10.5205L10.6301 0.758333C10.7123 0.794445 10.7878 0.839704 10.8564 0.894111C10.9251 0.948518 10.9867 1.01159 11.0411 1.08333L11.6164 0.830556L12 1.69722L11.5342 2.23889C11.5525 2.29907 11.5616 2.34722 11.5616 2.38333V2.67222C11.5616 2.70833 11.5525 2.75648 11.5342 2.81667L12 3.35833L11.6164 4.225L11.0411 3.97222C10.9863 4.04444 10.9247 4.10776 10.8564 4.16217C10.7881 4.21657 10.7127 4.26159 10.6301 4.29722L10.5205 5.05556H9.75342ZM10.623 3.16839C10.7556 2.99409 10.8219 2.78056 10.8219 2.52778C10.8219 2.275 10.7556 2.06122 10.623 1.88644C10.4904 1.71167 10.3284 1.62452 10.137 1.625C9.94557 1.62548 9.78338 1.71287 9.65041 1.88717C9.51744 2.06146 9.45132 2.275 9.45205 2.52778C9.45278 2.78056 9.51909 2.99433 9.65096 3.16911C9.78283 3.34389 9.94484 3.43104 10.137 3.43056C10.3291 3.43007 10.4908 3.34269 10.623 3.16839Z" fill="#9747FF"/>
</svg>
