<svg width="14" height="15" viewBox="0 0 14 15" fill="none" xmlns="http://www.w3.org/2000/svg">
<path d="M9.18182 9.66667C9.18182 8.98262 7.47236 8.42857 5.36364 8.42857M9.18182 9.66667C9.18182 10.3507 7.47236 10.9048 5.36364 10.9048C3.25491 10.9048 1.54545 10.3507 1.54545 9.66667M9.18182 9.66667V12.7229C9.18182 13.428 7.47236 14 5.36364 14C3.25491 14 1.54545 13.4286 1.54545 12.7229V9.66667M9.18182 9.66667C11.2676 9.66667 13 9.05567 13 8.42857V2.2381M5.36364 8.42857C3.25491 8.42857 1.54545 8.98262 1.54545 9.66667M5.36364 8.42857C2.95382 8.42857 1 7.81757 1 7.19048V4.09524M5.36364 2.85714C2.95382 2.85714 1 3.41119 1 4.09524M1 4.09524C1 4.77929 2.95382 5.33333 5.36364 5.33333C5.36364 5.96043 7.138 6.57143 9.22382 6.57143C11.3096 6.57143 13 5.96043 13 5.33333M13 2.2381C13 1.55405 11.3091 1 9.22382 1C7.13855 1 5.44764 1.55405 5.44764 2.2381M13 2.2381C13 2.92214 11.3091 3.47619 9.22382 3.47619C7.13855 3.47619 5.44764 2.92214 5.44764 2.2381M5.44764 2.2381V8.53133" stroke="#FFA629" stroke-width="2"/>
</svg>
