<svg width="13" height="14" viewBox="0 0 13 14" fill="none" xmlns="http://www.w3.org/2000/svg">
<path d="M4.89411 3.51076C6.07773 3.51076 7.03724 2.78082 7.03724 1.88038C7.03724 0.979947 6.07773 0.25 4.89411 0.25C3.71049 0.25 2.75098 0.979947 2.75098 1.88038C2.75098 2.78082 3.71049 3.51076 4.89411 3.51076Z" stroke="#008000" stroke-width="0.5" stroke-linecap="round" stroke-linejoin="round"/>
<path d="M1.15643 13.2228C12.018 9.34117 4.61704 3.34059 0.878436 6.28713C-0.520309 7.38927 0.706302 8.67468 1.74661 9.09353C1.87915 9.1468 2.12339 9.23939 1.77162 8.93944C-0.805393 6.91081 6.1354 5.79726 4.16941 9.46356C3.68676 10.5676 2.69105 11.7341 1.18103 12.9815C0.970964 13.1546 0.929285 13.25 1.06266 13.25C1.10642 13.25 1.14893 13.2377 1.15643 13.2228ZM11.2657 12.4669C13.3004 11.1463 9.82524 9.96738 8.66198 7.6052C8.35647 6.86452 8.90872 6.43616 8.58487 6.40096C8.54486 6.41079 7.44829 7.26054 7.44829 8.04973C7.44829 10.2099 12.0263 11.4954 9.69478 12.6482C8.2677 13.3537 10.3867 13.0376 11.2657 12.4669ZM10.0095 5.96087C13.4013 5.06672 12.5698 1.76284 9.98653 1.54216C9.63643 1.51204 9.303 1.51045 8.99166 1.5374C8.99166 1.61033 10.3875 2.13635 10.5784 3.71251C10.6384 4.20968 10.4961 4.74225 10.1516 5.31024C9.83066 5.83911 9.36719 5.96752 9.36719 6.06074C9.36719 6.09594 9.68311 6.04711 10.0095 5.96087Z" stroke="#008000" stroke-width="0.5" stroke-linecap="round" stroke-linejoin="round"/>
</svg>
