<svg width="23" height="24" viewBox="0 0 23 24" fill="none" xmlns="http://www.w3.org/2000/svg">
<path d="M18.9023 12.0596C19.3257 10.3323 19.2468 8.52 18.6751 6.836C18.1034 5.152 17.0625 3.66636 15.6749 2.55391C14.2874 1.44146 12.611 0.748509 10.843 0.556595C9.07496 0.36468 7.2889 0.681793 5.695 1.47061C4.1011 2.25943 2.76569 3.48714 1.84593 5.00924C0.926168 6.53134 0.460331 8.28449 0.503239 10.0624C0.546147 11.8403 1.09601 13.5689 2.08813 15.0449C3.08025 16.5208 4.47333 17.6827 6.10342 18.3937M0.5 9.83514H19.1685" stroke="black" stroke-linecap="round" stroke-linejoin="round"/>
<path d="M7.06131 14.1432C6.59265 12.7513 6.31656 11.3018 6.24072 9.83508C6.41674 6.42116 7.67438 3.15178 9.83166 0.5C11.9883 3.152 13.2454 6.42136 13.4209 9.83508C13.3887 10.4337 13.3247 11.0302 13.2293 11.6221M15.6674 13.5176L22.5 16.4778L15.6674 19.438L8.83813 16.4778L15.6674 13.5176Z" stroke="black" stroke-linecap="round" stroke-linejoin="round"/>
<path d="M11.9357 17.8275L11.9425 21.0488C11.9425 21.0488 13.0699 22.5408 15.6673 22.5408C18.2648 22.5408 19.3973 21.0488 19.3973 21.0488V17.8275M8.83643 21.6846V16.4779" stroke="black" stroke-linecap="round" stroke-linejoin="round"/>
</svg>
