<svg width="20" height="20" viewBox="0 0 20 20" fill="none" xmlns="http://www.w3.org/2000/svg">
<path fill-rule="evenodd" clip-rule="evenodd" d="M9.49153 7.85714C10.2108 7.85714 10.9005 7.55612 11.4091 7.02031C11.9177 6.48449 12.2034 5.75776 12.2034 5C12.2034 4.24224 11.9177 3.51551 11.4091 2.97969C10.9005 2.44388 10.2108 2.14286 9.49153 2.14286C8.77229 2.14286 8.08252 2.44388 7.57395 2.97969C7.06537 3.51551 6.77966 4.24224 6.77966 5C6.77966 5.75776 7.06537 6.48449 7.57395 7.02031C8.08252 7.55612 8.77229 7.85714 9.49153 7.85714ZM9.49153 10C10.7502 10 11.9573 9.47322 12.8473 8.53553C13.7373 7.59785 14.2373 6.32608 14.2373 5C14.2373 3.67392 13.7373 2.40215 12.8473 1.46447C11.9573 0.526784 10.7502 0 9.49153 0C8.23287 0 7.02577 0.526784 6.13576 1.46447C5.24576 2.40215 4.74576 3.67392 4.74576 5C4.74576 6.32608 5.24576 7.59785 6.13576 8.53553C7.02577 9.47322 8.23287 10 9.49153 10ZM10.8475 11.75C10.8512 11.486 10.7572 11.2309 10.5852 11.0389C10.4133 10.8468 10.1771 10.7329 9.92678 10.7214C9.78174 10.7168 9.63664 10.7144 9.49153 10.7143C4.27119 10.7143 0 13.5714 0 16.4286C0 17.3758 0.357142 18.2842 0.992858 18.954C1.62857 19.6237 2.49079 20 3.38983 20H15.2542C15.5239 20 15.7826 19.8871 15.9733 19.6862C16.164 19.4853 16.2712 19.2127 16.2712 18.9286C16.2712 18.6444 16.164 18.3719 15.9733 18.171C15.7826 17.97 15.5239 17.8571 15.2542 17.8571H3.38983C3.03022 17.8571 2.68533 17.7066 2.43104 17.4387C2.17675 17.1708 2.0339 16.8075 2.0339 16.4286C2.0339 16.1371 2.3322 15.2729 3.82373 14.3443C5.20407 13.4857 7.21356 12.8571 9.49153 12.8571C9.57107 12.8571 9.65017 12.8581 9.72881 12.86C10.3281 12.8714 10.8475 12.3814 10.8475 11.75ZM17.2881 10C17.2881 9.71584 17.181 9.44332 16.9903 9.24239C16.7996 9.04145 16.5409 8.92857 16.2712 8.92857C16.0015 8.92857 15.7428 9.04145 15.5521 9.24239C15.3614 9.44332 15.2542 9.71584 15.2542 10V11.7857H13.5593C13.2896 11.7857 13.0309 11.8986 12.8402 12.0995C12.6495 12.3005 12.5424 12.573 12.5424 12.8571C12.5424 13.1413 12.6495 13.4138 12.8402 13.6148C13.0309 13.8157 13.2896 13.9286 13.5593 13.9286H15.2542V15.7143C15.2542 15.9984 15.3614 16.271 15.5521 16.4719C15.7428 16.6728 16.0015 16.7857 16.2712 16.7857C16.5409 16.7857 16.7996 16.6728 16.9903 16.4719C17.181 16.271 17.2881 15.9984 17.2881 15.7143V13.9286H18.9831C19.2528 13.9286 19.5114 13.8157 19.7021 13.6148C19.8929 13.4138 20 13.1413 20 12.8571C20 12.573 19.8929 12.3005 19.7021 12.0995C19.5114 11.8986 19.2528 11.7857 18.9831 11.7857H17.2881V10Z" fill="#FFA629"/>
</svg>
