<svg width="30" height="27" viewBox="0 0 30 27" fill="none" xmlns="http://www.w3.org/2000/svg">
<path d="M9.85063 2.91671C12.182 -0.972237 17.8167 -0.972237 20.148 2.91671L29.1403 17.9238C31.5316 21.9177 28.6512 27 23.9916 27H6.01011C1.34748 27 -1.53292 21.9207 0.861409 17.9238L9.85063 2.91671ZM15.0023 17.2402C14.4055 17.2402 13.8331 17.4771 13.4111 17.8988C12.9891 18.3205 12.752 18.8925 12.752 19.489C12.752 20.0854 12.9891 20.6574 13.4111 21.0791C13.8331 21.5008 14.4055 21.7378 15.0023 21.7378C15.5992 21.7378 16.1715 21.5008 16.5935 21.0791C17.0156 20.6574 17.2526 20.0854 17.2526 19.489C17.2526 18.8925 17.0156 18.3205 16.5935 17.8988C16.1715 17.4771 15.5992 17.2402 15.0023 17.2402ZM15.0023 7.49529C14.6045 7.49529 14.2229 7.65325 13.9415 7.9344C13.6602 8.21556 13.5021 8.59689 13.5021 8.9945V13.4921C13.5021 13.8897 13.6602 14.2711 13.9415 14.5522C14.2229 14.8334 14.6045 14.9913 15.0023 14.9913C15.4002 14.9913 15.7818 14.8334 16.0631 14.5522C16.3445 14.2711 16.5025 13.8897 16.5025 13.4921V8.9945C16.5025 8.59689 16.3445 8.21556 16.0631 7.9344C15.7818 7.65325 15.4002 7.49529 15.0023 7.49529Z" fill="#966E4F"/>
</svg>
