<svg width="12" height="13" viewBox="0 0 12 13" fill="none" xmlns="http://www.w3.org/2000/svg">
<path d="M12 0H0V4.10526H0.6V11.6316C0.6 11.9945 0.726428 12.3426 0.951472 12.5992C1.17652 12.8558 1.48174 13 1.8 13H10.2C10.5183 13 10.8235 12.8558 11.0485 12.5992C11.2736 12.3426 11.4 11.9945 11.4 11.6316V4.10526H12V0ZM1.2 1.36842H10.8V2.73684H1.2V1.36842ZM10.2 11.6316H1.8V4.10526H10.2V11.6316ZM4.2 5.47368H7.8C7.8 5.83661 7.67357 6.18468 7.44853 6.4413C7.22348 6.69793 6.91826 6.84211 6.6 6.84211H5.4C5.08174 6.84211 4.77652 6.69793 4.55147 6.4413C4.32643 6.18468 4.2 5.83661 4.2 5.47368Z" fill="#0000FF"/>
</svg>
