<svg width="10" height="12" viewBox="0 0 10 12" fill="none" xmlns="http://www.w3.org/2000/svg">
<path d="M5 10.7848C6.01042 10.481 6.85417 9.88111 7.53125 8.98511C8.20833 8.08911 8.60417 7.08901 8.71875 5.98481H5V1.2L1.25 2.56709V5.71139C1.25 5.78228 1.26042 5.87342 1.28125 5.98481H5V10.7848ZM4.79687 11.9848C4.73437 11.9747 4.67187 11.9595 4.60937 11.9392C3.20312 11.4835 2.08333 10.6406 1.25 9.41043C0.416667 8.18025 0 6.8561 0 5.43797V2.56709C0 2.31392 0.0756249 2.08608 0.226875 1.88354C0.378125 1.68101 0.573333 1.53418 0.8125 1.44304L4.5625 0.0759494C4.70833 0.0253165 4.85417 0 5 0C5.14583 0 5.29167 0.0253165 5.4375 0.0759494L9.1875 1.44304C9.42708 1.53418 9.6225 1.68101 9.77375 1.88354C9.925 2.08608 10.0004 2.31392 10 2.56709V5.43797C10 6.8557 9.58333 8.17985 8.75 9.41043C7.91667 10.641 6.79687 11.4839 5.39062 11.9392C5.32812 11.9595 5.26562 11.9747 5.20312 11.9848C5.14062 11.9949 5.07292 12 5 12C4.92708 12 4.85937 11.9949 4.79687 11.9848Z" fill="black"/>
</svg>
