<svg width="50" height="50" viewBox="0 0 50 50" fill="none" xmlns="http://www.w3.org/2000/svg">
<path d="M27.695 40.9954C27.7434 36.0065 26.4891 31.9496 24.8935 31.9339C23.2979 31.9183 21.9651 35.9497 21.9169 40.9384C21.8684 45.9272 23.1228 49.9842 24.7183 49.9999C26.314 50.0156 27.6467 45.9842 27.695 40.9954Z" fill="#2563EB"/>
<path d="M18.4399 39.8624C21.1557 35.6921 22.2759 31.5954 20.9421 30.7123C19.6082 29.8291 16.3254 32.4939 13.6097 36.6643C10.8939 40.8346 9.77364 44.9312 11.1075 45.8145C12.4413 46.6976 15.7241 44.0328 18.4399 39.8624Z" fill="#2563EB"/>
<path d="M11.2515 33.8791C15.7723 31.8515 18.9114 29.0161 18.2628 27.5459C17.6143 26.0758 13.4238 26.5278 8.90304 28.5554C4.38229 30.583 1.24322 33.4185 1.89174 34.8886C2.54025 36.3588 6.73079 35.9068 11.2515 33.8791Z" fill="#2563EB"/>
<path d="M17.7201 23.4232C17.9629 21.8329 14.1954 19.9285 9.30523 19.1695C4.41493 18.4106 0.253843 19.0845 0.0111013 20.6748C-0.231641 22.265 3.53589 24.1693 8.42612 24.9283C13.3163 25.6873 17.4774 25.0133 17.7201 23.4232Z" fill="#2563EB"/>
<path d="M19.4761 19.6351C20.5328 18.4296 18.384 14.7739 14.6766 11.47C10.9692 8.16614 7.10712 6.46517 6.0504 7.67078C4.99369 8.8764 7.14249 12.5321 10.8499 15.8359C14.5574 19.1398 18.4194 20.8407 19.4761 19.6351Z" fill="#2563EB"/>
<path d="M22.9736 17.421C24.509 16.9829 24.6615 12.7361 23.3143 7.93558C21.9672 3.13504 19.6303 -0.401407 18.0949 0.0366831C16.5596 0.47478 16.407 4.72149 17.7541 9.52207C19.1013 14.3225 21.4381 17.859 22.9736 17.421Z" fill="#2563EB"/>
<path d="M32.4679 9.67138C33.9087 4.8986 33.8393 0.649623 32.3127 0.181088C30.7861 -0.287453 28.3806 3.20185 26.9398 7.97469C25.4991 12.7474 25.5685 16.9964 27.095 17.465C28.6216 17.9335 31.0271 14.4442 32.4679 9.67138Z" fill="#2563EB"/>
<path d="M39.2526 16.1204C43.0233 12.8903 45.2427 9.27769 44.2094 8.05149C43.1763 6.82529 39.282 8.4499 35.5113 11.68C31.7405 14.9101 29.5213 18.5228 30.5544 19.749C31.5875 20.9752 35.4818 19.3506 39.2526 16.1204Z" fill="#2563EB"/>
<path d="M41.4951 25.2467C46.3993 24.5851 50.2033 22.7561 49.9916 21.1612C49.7801 19.5665 45.633 18.8101 40.7288 19.4716C35.8248 20.1331 32.0207 21.9622 32.2323 23.557C32.4439 25.1517 36.591 25.9083 41.4951 25.2467Z" fill="#2563EB"/>
<path d="M47.8214 35.3444C48.4986 33.8874 45.4157 30.9902 40.9354 28.873C36.4552 26.7558 32.2743 26.2207 31.5972 27.6776C30.9201 29.1346 34.003 32.0318 38.4833 34.149C42.9634 36.2661 47.1444 36.8013 47.8214 35.3444Z" fill="#2563EB"/>
<path d="M38.397 46.0942C39.7478 45.2378 38.7078 41.1197 36.0742 36.8961C33.4406 32.6726 30.2105 29.9431 28.8596 30.7995C27.5088 31.6559 28.5487 35.7741 31.1823 39.9976C33.816 44.2212 37.0461 46.9508 38.397 46.0942Z" fill="#2563EB"/>
</svg>
