<svg width="37" height="37" viewBox="0 0 37 37" fill="none" xmlns="http://www.w3.org/2000/svg">
<g filter="url(#filter0_i_453_1376)">
<path d="M20.4944 30.3364C20.5302 26.6447 19.6019 23.6426 18.4212 23.6309C17.2405 23.6193 16.2542 26.6026 16.2185 30.2943C16.1827 33.986 17.1109 36.9882 18.2916 36.9997C19.4724 37.0114 20.4586 34.0281 20.4944 30.3364Z" fill="white"/>
<path d="M13.6453 29.4978C15.655 26.4117 16.4839 23.3801 15.4969 22.7267C14.5099 22.0731 12.0806 24.0451 10.071 27.1312C8.06128 30.2172 7.23229 33.2487 8.21934 33.9023C9.20639 34.5558 11.6356 32.5838 13.6453 29.4978Z" fill="white"/>
<path d="M8.32593 25.0699C11.6713 23.5695 13.9942 21.4712 13.5143 20.3833C13.0344 19.2954 9.93344 19.6299 6.58807 21.1304C3.24271 22.6308 0.919805 24.7291 1.39971 25.8169C1.8796 26.9049 4.9806 26.5704 8.32593 25.0699Z" fill="white"/>
<path d="M13.1129 17.3326C13.2926 16.1558 10.5046 14.7465 6.88587 14.1849C3.26705 13.6232 0.187844 14.122 0.00821495 15.2987C-0.171414 16.4755 2.61656 17.8847 6.23533 18.4463C9.85404 19.008 12.9333 18.5093 13.1129 17.3326Z" fill="white"/>
<path d="M14.4122 14.5301C15.1942 13.638 13.6041 10.9327 10.8606 8.48791C8.11715 6.04302 5.25922 4.7843 4.47725 5.67646C3.69528 6.56861 5.28539 9.27383 8.0289 11.7187C10.7724 14.1636 13.6303 15.4222 14.4122 14.5301Z" fill="white"/>
<path d="M17.0005 12.8915C18.1367 12.5673 18.2496 9.4247 17.2527 5.87233C16.2558 2.31993 14.5265 -0.297041 13.3903 0.0271455C12.2542 0.351337 12.1413 3.49391 13.1381 7.04633C14.1351 10.5987 15.8643 13.2157 17.0005 12.8915Z" fill="white"/>
<path d="M24.0264 7.15657C25.0926 3.6247 25.0412 0.480462 23.9116 0.133747C22.7819 -0.212974 21.0018 2.36911 19.9356 5.90102C18.8695 9.43283 18.9208 12.5771 20.0505 12.9238C21.1801 13.2705 22.9602 10.6885 24.0264 7.15657Z" fill="white"/>
<path d="M29.0467 11.9289C31.8371 9.53855 33.4794 6.86526 32.7148 5.95787C31.9503 5.05048 29.0685 6.25269 26.2782 8.64293C23.4878 11.0333 21.8456 13.7066 22.6101 14.614C23.3746 15.5214 26.2564 14.3192 29.0467 11.9289Z" fill="white"/>
<path d="M30.7062 18.6832C34.3353 18.1936 37.1502 16.8401 36.9936 15.6599C36.8371 14.4798 33.7682 13.9201 30.1391 14.4096C26.5101 14.8991 23.6951 16.2526 23.8517 17.4328C24.0083 18.6129 27.0771 19.1727 30.7062 18.6832Z" fill="white"/>
<path d="M35.388 26.1545C35.8891 25.0764 33.6077 22.9324 30.2923 21.3657C26.977 19.799 23.8831 19.403 23.382 20.4811C22.8809 21.5593 25.1623 23.7033 28.4777 25.27C31.793 26.8366 34.8869 27.2327 35.388 26.1545Z" fill="white"/>
<path d="M28.4135 34.1102C29.4131 33.4765 28.6436 30.429 26.6947 27.3036C24.7458 24.1781 22.3555 22.1583 21.3559 22.7921C20.3563 23.4258 21.1258 26.4733 23.0747 29.5987C25.0236 32.7241 27.4139 34.744 28.4135 34.1102Z" fill="white"/>
</g>
<defs>
<filter id="filter0_i_453_1376" x="0" y="0" width="36.9998" height="37" filterUnits="userSpaceOnUse" color-interpolation-filters="sRGB">
<feFlood flood-opacity="0" result="BackgroundImageFix"/>
<feBlend mode="normal" in="SourceGraphic" in2="BackgroundImageFix" result="shape"/>
<feColorMatrix in="SourceAlpha" type="matrix" values="0 0 0 0 0 0 0 0 0 0 0 0 0 0 0 0 0 0 127 0" result="hardAlpha"/>
<feOffset dx="100" dy="4"/>
<feGaussianBlur stdDeviation="2"/>
<feComposite in2="hardAlpha" operator="arithmetic" k2="-1" k3="1"/>
<feColorMatrix type="matrix" values="0 0 0 0 0 0 0 0 0 0 0 0 0 0 0 0 0 0 1 0"/>
<feBlend mode="normal" in2="shape" result="effect1_innerShadow_453_1376"/>
</filter>
</defs>
</svg>
