<svg width="30" height="18" viewBox="0 0 30 18" fill="none" xmlns="http://www.w3.org/2000/svg">
<path d="M10.5 9C13.395 9 15.75 6.98143 15.75 4.5C15.75 2.01857 13.395 0 10.5 0C7.605 0 5.25 2.01857 5.25 4.5C5.25 6.98143 7.605 9 10.5 9ZM10.5 2.57143C11.745 2.57143 12.75 3.43286 12.75 4.5C12.75 5.56714 11.745 6.42857 10.5 6.42857C9.255 6.42857 8.25 5.56714 8.25 4.5C8.25 3.43286 9.255 2.57143 10.5 2.57143ZM10.5 11.25C6.99 11.25 0 12.7543 0 15.75V18H21V15.75C21 12.7543 14.01 11.25 10.5 11.25ZM3.51 15.4286C4.77 14.6829 7.815 13.8214 10.5 13.8214C13.185 13.8214 16.23 14.6829 17.49 15.4286H3.51ZM21.06 11.3271C22.8 12.4071 24 13.8471 24 15.75V18H30V15.75C30 13.1529 24.75 11.6743 21.06 11.3271ZM19.5 9C22.395 9 24.75 6.98143 24.75 4.5C24.75 2.01857 22.395 0 19.5 0C18.69 0 17.94 0.167143 17.25 0.45C18.195 1.59429 18.75 2.99571 18.75 4.5C18.75 6.00429 18.195 7.40571 17.25 8.55C17.94 8.83286 18.69 9 19.5 9Z" fill="#0000FF"/>
</svg>
